<svg xmlns="http://www.w3.org/2000/svg" viewBox="0 0 1280 480"><defs><linearGradient id="sky" x1="0" y1="0" x2="0" y2="1"><stop offset="0" stop-color="#12042E"/><stop offset="0.6" stop-color="#3A0F5E"/><stop offset="1" stop-color="#7A1D72"/></linearGradient><linearGradient id="floor" x1="0" y1="0" x2="0" y2="1"><stop offset="0" stop-color="#1A0636"/><stop offset="1" stop-color="#0B0320"/></linearGradient><linearGradient id="sun" x1="0" y1="202" x2="0" y2="352" gradientUnits="userSpaceOnUse"><stop offset="0" stop-color="#FFF6A0"/><stop offset="0.38" stop-color="#FF9D7A"/><stop offset="0.7" stop-color="#FF5FC8"/><stop offset="1" stop-color="#A94BFF"/></linearGradient><radialGradient id="sun-glow" cx="640" cy="352" r="202.5" gradientUnits="userSpaceOnUse"><stop offset="0" stop-color="#FF5FC8" stop-opacity="0.45"/><stop offset="0.55" stop-color="#A94BFF" stop-opacity="0.16"/><stop offset="1" stop-color="#A94BFF" stop-opacity="0"/></radialGradient><linearGradient id="wm" x1="334.5" y1="0" x2="945.5" y2="0" gradientUnits="userSpaceOnUse"><stop offset="0" stop-color="#FF5FC8"/><stop offset="0.5" stop-color="#A94BFF"/><stop offset="1" stop-color="#2DE2F5"/></linearGradient></defs><rect width="1280" height="352" fill="url(#sky)"/><rect y="352" width="1280" height="128" fill="url(#floor)"/><circle cx="640" cy="352" r="202.5" fill="url(#sun-glow)"/><g fill="url(#sun)"><rect x="494.33" y="297.03" width="24.67" height="13.35" rx="4.44"/><rect x="494.33" y="318.62" width="24.67" height="12.75" rx="0.00"/><rect x="494.33" y="342.62" width="24.67" height="9.38" rx="0.00"/><rect x="494.33" y="283.28" width="24.67" height="6.75" rx="3.38"/><rect x="527.67" y="248.02" width="24.67" height="41.35" rx="4.44"/><rect x="527.67" y="294.62" width="24.67" height="15.75" rx="0.00"/><rect x="527.67" y="318.62" width="24.67" height="12.75" rx="0.00"/><rect x="527.67" y="342.62" width="24.67" height="9.38" rx="0.00"/><rect x="527.67" y="240.20" width="24.67" height="6.75" rx="3.38"/><rect x="561.00" y="252.57" width="24.67" height="36.81" rx="4.44"/><rect x="561.00" y="294.62" width="24.67" height="15.75" rx="0.00"/><rect x="561.00" y="318.62" width="24.67" height="12.75" rx="0.00"/><rect x="561.00" y="342.62" width="24.67" height="9.38" rx="0.00"/><rect x="561.00" y="217.63" width="24.67" height="6.75" rx="3.38"/><rect x="594.33" y="210.14" width="24.67" height="79.24" rx="4.44"/><rect x="594.33" y="294.62" width="24.67" height="15.75" rx="0.00"/><rect x="594.33" y="318.62" width="24.67" height="12.75" rx="0.00"/><rect x="594.33" y="342.62" width="24.67" height="9.38" rx="0.00"/><rect x="594.33" y="205.75" width="24.67" height="6.75" rx="3.38"/><rect x="627.67" y="220.00" width="24.67" height="69.38" rx="4.44"/><rect x="627.67" y="294.62" width="24.67" height="15.75" rx="0.00"/><rect x="627.67" y="318.62" width="24.67" height="12.75" rx="0.00"/><rect x="627.67" y="342.62" width="24.67" height="9.38" rx="0.00"/><rect x="627.67" y="202.00" width="24.67" height="6.75" rx="3.38"/><rect x="661.00" y="205.75" width="24.67" height="83.62" rx="4.44"/><rect x="661.00" y="294.62" width="24.67" height="15.75" rx="0.00"/><rect x="661.00" y="318.62" width="24.67" height="12.75" rx="0.00"/><rect x="661.00" y="342.62" width="24.67" height="9.38" rx="0.00"/><rect x="694.33" y="247.19" width="24.67" height="42.18" rx="4.44"/><rect x="694.33" y="294.62" width="24.67" height="15.75" rx="0.00"/><rect x="694.33" y="318.62" width="24.67" height="12.75" rx="0.00"/><rect x="694.33" y="342.62" width="24.67" height="9.38" rx="0.00"/><rect x="694.33" y="217.63" width="24.67" height="6.75" rx="3.38"/><rect x="727.67" y="250.26" width="24.67" height="39.12" rx="4.44"/><rect x="727.67" y="294.62" width="24.67" height="15.75" rx="0.00"/><rect x="727.67" y="318.62" width="24.67" height="12.75" rx="0.00"/><rect x="727.67" y="342.62" width="24.67" height="9.38" rx="0.00"/><rect x="727.67" y="240.20" width="24.67" height="6.75" rx="3.38"/><rect x="761.00" y="294.62" width="24.67" height="15.75" rx="0.00"/><rect x="761.00" y="318.62" width="24.67" height="12.75" rx="0.00"/><rect x="761.00" y="342.62" width="24.67" height="9.38" rx="0.00"/><rect x="761.00" y="283.28" width="24.67" height="6.75" rx="3.38"/></g><g stroke="#2DE2F5" stroke-width="2.2" stroke-linecap="round" fill="none"><line x1="-300" y1="356.25" x2="1580" y2="356.25" opacity="0.28"/><line x1="-300" y1="367.87" x2="1580" y2="367.87" opacity="0.32"/><line x1="-300" y1="386.30" x2="1580" y2="386.30" opacity="0.39"/><line x1="-300" y1="411.24" x2="1580" y2="411.24" opacity="0.49"/><line x1="-300" y1="442.52" x2="1580" y2="442.52" opacity="0.61"/><line x1="-300" y1="480.00" x2="1580" y2="480.00" opacity="0.75"/><line x1="583.60" y1="352" x2="-1428.00" y2="633.6" opacity="0.60"/><line x1="588.73" y1="352" x2="-1240.00" y2="633.6" opacity="0.60"/><line x1="593.85" y1="352" x2="-1052.00" y2="633.6" opacity="0.60"/><line x1="598.98" y1="352" x2="-864.00" y2="633.6" opacity="0.60"/><line x1="604.11" y1="352" x2="-676.00" y2="633.6" opacity="0.60"/><line x1="609.24" y1="352" x2="-488.00" y2="633.6" opacity="0.60"/><line x1="614.36" y1="352" x2="-300.00" y2="633.6" opacity="0.60"/><line x1="619.49" y1="352" x2="-112.00" y2="633.6" opacity="0.60"/><line x1="624.62" y1="352" x2="76.00" y2="633.6" opacity="0.60"/><line x1="629.75" y1="352" x2="264.00" y2="633.6" opacity="0.60"/><line x1="634.87" y1="352" x2="452.00" y2="633.6" opacity="0.60"/><line x1="640.00" y1="352" x2="640.00" y2="633.6" opacity="0.60"/><line x1="645.13" y1="352" x2="828.00" y2="633.6" opacity="0.60"/><line x1="650.25" y1="352" x2="1016.00" y2="633.6" opacity="0.60"/><line x1="655.38" y1="352" x2="1204.00" y2="633.6" opacity="0.60"/><line x1="660.51" y1="352" x2="1392.00" y2="633.6" opacity="0.60"/><line x1="665.64" y1="352" x2="1580.00" y2="633.6" opacity="0.60"/><line x1="670.76" y1="352" x2="1768.00" y2="633.6" opacity="0.60"/><line x1="675.89" y1="352" x2="1956.00" y2="633.6" opacity="0.60"/><line x1="681.02" y1="352" x2="2144.00" y2="633.6" opacity="0.60"/><line x1="686.15" y1="352" x2="2332.00" y2="633.6" opacity="0.60"/><line x1="691.27" y1="352" x2="2520.00" y2="633.6" opacity="0.60"/><line x1="696.40" y1="352" x2="2708.00" y2="633.6" opacity="0.60"/></g><rect x="0" y="350.5" width="1280" height="3" fill="#2DE2F5"/><g fill="url(#wm)"><circle cx="334.5" cy="44.0" r="5.00"/><circle cx="347.5" cy="44.0" r="5.00"/><circle cx="360.5" cy="44.0" r="5.00"/><circle cx="373.5" cy="44.0" r="5.00"/><circle cx="386.5" cy="44.0" r="5.00"/><circle cx="334.5" cy="57.0" r="5.00"/><circle cx="334.5" cy="70.0" r="5.00"/><circle cx="334.5" cy="83.0" r="5.00"/><circle cx="347.5" cy="83.0" r="5.00"/><circle cx="360.5" cy="83.0" r="5.00"/><circle cx="373.5" cy="83.0" r="5.00"/><circle cx="334.5" cy="96.0" r="5.00"/><circle cx="334.5" cy="109.0" r="5.00"/><circle cx="334.5" cy="122.0" r="5.00"/><circle cx="347.5" cy="122.0" r="5.00"/><circle cx="360.5" cy="122.0" r="5.00"/><circle cx="373.5" cy="122.0" r="5.00"/><circle cx="386.5" cy="122.0" r="5.00"/><circle cx="425.5" cy="44.0" r="5.00"/><circle cx="438.5" cy="44.0" r="5.00"/><circle cx="451.5" cy="44.0" r="5.00"/><circle cx="412.5" cy="57.0" r="5.00"/><circle cx="464.5" cy="57.0" r="5.00"/><circle cx="412.5" cy="70.0" r="5.00"/><circle cx="464.5" cy="70.0" r="5.00"/><circle cx="412.5" cy="83.0" r="5.00"/><circle cx="464.5" cy="83.0" r="5.00"/><circle cx="412.5" cy="96.0" r="5.00"/><circle cx="438.5" cy="96.0" r="5.00"/><circle cx="464.5" cy="96.0" r="5.00"/><circle cx="412.5" cy="109.0" r="5.00"/><circle cx="451.5" cy="109.0" r="5.00"/><circle cx="425.5" cy="122.0" r="5.00"/><circle cx="438.5" cy="122.0" r="5.00"/><circle cx="464.5" cy="122.0" r="5.00"/><circle cx="490.5" cy="44.0" r="5.00"/><circle cx="542.5" cy="44.0" r="5.00"/><circle cx="490.5" cy="57.0" r="5.00"/><circle cx="542.5" cy="57.0" r="5.00"/><circle cx="490.5" cy="70.0" r="5.00"/><circle cx="542.5" cy="70.0" r="5.00"/><circle cx="490.5" cy="83.0" r="5.00"/><circle cx="542.5" cy="83.0" r="5.00"/><circle cx="490.5" cy="96.0" r="5.00"/><circle cx="542.5" cy="96.0" r="5.00"/><circle cx="490.5" cy="109.0" r="5.00"/><circle cx="542.5" cy="109.0" r="5.00"/><circle cx="503.5" cy="122.0" r="5.00"/><circle cx="516.5" cy="122.0" r="5.00"/><circle cx="529.5" cy="122.0" r="5.00"/><circle cx="581.5" cy="44.0" r="5.00"/><circle cx="594.5" cy="44.0" r="5.00"/><circle cx="607.5" cy="44.0" r="5.00"/><circle cx="568.5" cy="57.0" r="5.00"/><circle cx="620.5" cy="57.0" r="5.00"/><circle cx="568.5" cy="70.0" r="5.00"/><circle cx="620.5" cy="70.0" r="5.00"/><circle cx="568.5" cy="83.0" r="5.00"/><circle cx="581.5" cy="83.0" r="5.00"/><circle cx="594.5" cy="83.0" r="5.00"/><circle cx="607.5" cy="83.0" r="5.00"/><circle cx="620.5" cy="83.0" r="5.00"/><circle cx="568.5" cy="96.0" r="5.00"/><circle cx="620.5" cy="96.0" r="5.00"/><circle cx="568.5" cy="109.0" r="5.00"/><circle cx="620.5" cy="109.0" r="5.00"/><circle cx="568.5" cy="122.0" r="5.00"/><circle cx="620.5" cy="122.0" r="5.00"/><circle cx="646.5" cy="44.0" r="5.00"/><circle cx="646.5" cy="57.0" r="5.00"/><circle cx="646.5" cy="70.0" r="5.00"/><circle cx="646.5" cy="83.0" r="5.00"/><circle cx="646.5" cy="96.0" r="5.00"/><circle cx="646.5" cy="109.0" r="5.00"/><circle cx="646.5" cy="122.0" r="5.00"/><circle cx="659.5" cy="122.0" r="5.00"/><circle cx="672.5" cy="122.0" r="5.00"/><circle cx="685.5" cy="122.0" r="5.00"/><circle cx="698.5" cy="122.0" r="5.00"/><circle cx="724.5" cy="44.0" r="5.00"/><circle cx="737.5" cy="44.0" r="5.00"/><circle cx="750.5" cy="44.0" r="5.00"/><circle cx="763.5" cy="44.0" r="5.00"/><circle cx="776.5" cy="44.0" r="5.00"/><circle cx="750.5" cy="57.0" r="5.00"/><circle cx="750.5" cy="70.0" r="5.00"/><circle cx="750.5" cy="83.0" r="5.00"/><circle cx="750.5" cy="96.0" r="5.00"/><circle cx="750.5" cy="109.0" r="5.00"/><circle cx="724.5" cy="122.0" r="5.00"/><circle cx="737.5" cy="122.0" r="5.00"/><circle cx="750.5" cy="122.0" r="5.00"/><circle cx="763.5" cy="122.0" r="5.00"/><circle cx="776.5" cy="122.0" r="5.00"/><circle cx="802.5" cy="44.0" r="5.00"/><circle cx="815.5" cy="44.0" r="5.00"/><circle cx="828.5" cy="44.0" r="5.00"/><circle cx="841.5" cy="44.0" r="5.00"/><circle cx="854.5" cy="44.0" r="5.00"/><circle cx="854.5" cy="57.0" r="5.00"/><circle cx="841.5" cy="70.0" r="5.00"/><circle cx="828.5" cy="83.0" r="5.00"/><circle cx="815.5" cy="96.0" r="5.00"/><circle cx="802.5" cy="109.0" r="5.00"/><circle cx="802.5" cy="122.0" r="5.00"/><circle cx="815.5" cy="122.0" r="5.00"/><circle cx="828.5" cy="122.0" r="5.00"/><circle cx="841.5" cy="122.0" r="5.00"/><circle cx="854.5" cy="122.0" r="5.00"/><circle cx="880.5" cy="44.0" r="5.00"/><circle cx="893.5" cy="44.0" r="5.00"/><circle cx="906.5" cy="44.0" r="5.00"/><circle cx="919.5" cy="44.0" r="5.00"/><circle cx="932.5" cy="44.0" r="5.00"/><circle cx="880.5" cy="57.0" r="5.00"/><circle cx="880.5" cy="70.0" r="5.00"/><circle cx="880.5" cy="83.0" r="5.00"/><circle cx="893.5" cy="83.0" r="5.00"/><circle cx="906.5" cy="83.0" r="5.00"/><circle cx="919.5" cy="83.0" r="5.00"/><circle cx="880.5" cy="96.0" r="5.00"/><circle cx="880.5" cy="109.0" r="5.00"/><circle cx="880.5" cy="122.0" r="5.00"/><circle cx="893.5" cy="122.0" r="5.00"/><circle cx="906.5" cy="122.0" r="5.00"/><circle cx="919.5" cy="122.0" r="5.00"/><circle cx="932.5" cy="122.0" r="5.00"/></g><text x="640" y="153" text-anchor="middle" font-family="Helvetica, Arial, sans-serif" font-size="19" letter-spacing="7" fill="#F3E9FF" opacity="0.8">YOUR MUSIC, ON THE WALL</text></svg>